<mxfile host="www.draw.io" modified="2019-10-22T02:45:25.175Z" agent="Mozilla/5.0 (Macintosh; Intel Mac OS X 10_13_4) AppleWebKit/537.36 (KHTML, like Gecko) Chrome/77.0.3865.90 Safari/537.36" etag="pRFneAHkApfLDNlAO4W5" version="12.1.3" type="github" pages="1">
  <diagram id="Bb6Ngx0tEHPjE61ilpR4" name="Page-1">
    <mxGraphModel dx="786" dy="465" grid="1" gridSize="10" guides="1" tooltips="1" connect="1" arrows="1" fold="1" page="1" pageScale="1" pageWidth="826" pageHeight="1169" math="0" shadow="0">
      <root>
        <mxCell id="0"/>
        <mxCell id="1" parent="0"/>
        <mxCell id="ILwn6HDtTadkPIdaFgEa-1" value="" style="endArrow=none;dashed=1;html=1;strokeWidth=2;" edge="1" parent="1">
          <mxGeometry width="50" height="50" relative="1" as="geometry">
            <mxPoint x="200" y="613" as="sourcePoint"/>
            <mxPoint x="200" y="80" as="targetPoint"/>
          </mxGeometry>
        </mxCell>
        <mxCell id="ILwn6HDtTadkPIdaFgEa-2" value="" style="endArrow=none;dashed=1;html=1;strokeWidth=2;" edge="1" parent="1">
          <mxGeometry width="50" height="50" relative="1" as="geometry">
            <mxPoint x="320" y="613" as="sourcePoint"/>
            <mxPoint x="320" y="80" as="targetPoint"/>
          </mxGeometry>
        </mxCell>
        <mxCell id="ILwn6HDtTadkPIdaFgEa-3" value="" style="endArrow=none;dashed=1;html=1;strokeWidth=2;" edge="1" parent="1">
          <mxGeometry width="50" height="50" relative="1" as="geometry">
            <mxPoint x="440" y="603" as="sourcePoint"/>
            <mxPoint x="440" y="70" as="targetPoint"/>
          </mxGeometry>
        </mxCell>
        <mxCell id="ILwn6HDtTadkPIdaFgEa-4" value="" style="endArrow=none;dashed=1;html=1;strokeWidth=2;" edge="1" parent="1">
          <mxGeometry width="50" height="50" relative="1" as="geometry">
            <mxPoint x="560" y="613" as="sourcePoint"/>
            <mxPoint x="560" y="80" as="targetPoint"/>
          </mxGeometry>
        </mxCell>
        <mxCell id="ILwn6HDtTadkPIdaFgEa-5" value="&lt;b&gt;mars monitor&lt;/b&gt;" style="rounded=0;whiteSpace=wrap;html=1;strokeWidth=2;" vertex="1" parent="1">
          <mxGeometry x="150" y="50" width="100" height="40" as="geometry"/>
        </mxCell>
        <mxCell id="ILwn6HDtTadkPIdaFgEa-7" value="&lt;b&gt;mars&lt;/b&gt;" style="rounded=0;whiteSpace=wrap;html=1;strokeWidth=2;" vertex="1" parent="1">
          <mxGeometry x="270" y="50" width="100" height="40" as="geometry"/>
        </mxCell>
        <mxCell id="ILwn6HDtTadkPIdaFgEa-8" value="&lt;b&gt;集群&lt;/b&gt;" style="rounded=0;whiteSpace=wrap;html=1;strokeWidth=2;" vertex="1" parent="1">
          <mxGeometry x="390" y="50" width="100" height="40" as="geometry"/>
        </mxCell>
        <mxCell id="ILwn6HDtTadkPIdaFgEa-9" value="&lt;b&gt;dw_meta&lt;/b&gt;" style="rounded=0;whiteSpace=wrap;html=1;strokeWidth=2;" vertex="1" parent="1">
          <mxGeometry x="510" y="50" width="100" height="40" as="geometry"/>
        </mxCell>
        <mxCell id="ILwn6HDtTadkPIdaFgEa-10" value="Actor" style="shape=umlActor;verticalLabelPosition=bottom;labelBackgroundColor=#ffffff;verticalAlign=top;html=1;outlineConnect=0;strokeWidth=2;" vertex="1" parent="1">
          <mxGeometry x="40" y="90" width="30" height="60" as="geometry"/>
        </mxCell>
        <mxCell id="ILwn6HDtTadkPIdaFgEa-11" value="" style="endArrow=classic;html=1;strokeWidth=2;" edge="1" parent="1">
          <mxGeometry width="50" height="50" relative="1" as="geometry">
            <mxPoint x="80" y="120" as="sourcePoint"/>
            <mxPoint x="200" y="120" as="targetPoint"/>
          </mxGeometry>
        </mxCell>
        <mxCell id="ILwn6HDtTadkPIdaFgEa-12" value="打开页面" style="text;html=1;resizable=0;points=[];align=center;verticalAlign=middle;labelBackgroundColor=#ffffff;" vertex="1" connectable="0" parent="ILwn6HDtTadkPIdaFgEa-11">
          <mxGeometry x="-0.2" y="1" relative="1" as="geometry">
            <mxPoint as="offset"/>
          </mxGeometry>
        </mxCell>
        <mxCell id="ILwn6HDtTadkPIdaFgEa-13" value="查db&amp;amp;es&lt;br&gt;组合返回" style="endArrow=classic;html=1;strokeWidth=2;" edge="1" parent="1">
          <mxGeometry width="50" height="50" relative="1" as="geometry">
            <mxPoint x="200" y="130" as="sourcePoint"/>
            <mxPoint x="200" y="190" as="targetPoint"/>
            <Array as="points">
              <mxPoint x="260" y="130"/>
              <mxPoint x="260" y="190"/>
            </Array>
          </mxGeometry>
        </mxCell>
        <mxCell id="ILwn6HDtTadkPIdaFgEa-14" value="binlog" style="endArrow=classic;html=1;strokeWidth=2;" edge="1" parent="1">
          <mxGeometry width="50" height="50" relative="1" as="geometry">
            <mxPoint x="320" y="230" as="sourcePoint"/>
            <mxPoint x="200" y="230" as="targetPoint"/>
          </mxGeometry>
        </mxCell>
        <mxCell id="ILwn6HDtTadkPIdaFgEa-15" value="kafka" style="endArrow=classic;html=1;strokeWidth=2;" edge="1" parent="1">
          <mxGeometry width="50" height="50" relative="1" as="geometry">
            <mxPoint x="440" y="260" as="sourcePoint"/>
            <mxPoint x="200" y="260" as="targetPoint"/>
          </mxGeometry>
        </mxCell>
        <mxCell id="ILwn6HDtTadkPIdaFgEa-16" value="binlog" style="endArrow=classic;html=1;strokeWidth=2;" edge="1" parent="1">
          <mxGeometry width="50" height="50" relative="1" as="geometry">
            <mxPoint x="560" y="290" as="sourcePoint"/>
            <mxPoint x="200" y="290" as="targetPoint"/>
          </mxGeometry>
        </mxCell>
        <mxCell id="ILwn6HDtTadkPIdaFgEa-17" value="计算&amp;amp;入库&lt;br&gt;&amp;amp;写es" style="endArrow=classic;html=1;strokeWidth=2;" edge="1" parent="1">
          <mxGeometry width="50" height="50" relative="1" as="geometry">
            <mxPoint x="200" y="310" as="sourcePoint"/>
            <mxPoint x="200" y="370" as="targetPoint"/>
            <Array as="points">
              <mxPoint x="260" y="310"/>
              <mxPoint x="260" y="370"/>
            </Array>
          </mxGeometry>
        </mxCell>
        <mxCell id="ILwn6HDtTadkPIdaFgEa-21" value="每天定时任务&lt;br&gt;对天更新数据进行更新" style="endArrow=classic;html=1;strokeWidth=2;" edge="1" parent="1">
          <mxGeometry width="50" height="50" relative="1" as="geometry">
            <mxPoint x="200" y="410" as="sourcePoint"/>
            <mxPoint x="200" y="500" as="targetPoint"/>
            <Array as="points">
              <mxPoint x="260" y="410"/>
              <mxPoint x="260" y="500"/>
            </Array>
          </mxGeometry>
        </mxCell>
      </root>
    </mxGraphModel>
  </diagram>
</mxfile>
